<svg id="Capa_1" data-name="Capa 1" xmlns="http://www.w3.org/2000/svg" viewBox="0 0 468 319.96"><defs><style>.cls-1,.cls-2{fill:none;}.cls-1,.cls-2,.cls-3{stroke:#4273b4;stroke-linecap:round;stroke-linejoin:round;}.cls-1,.cls-3{stroke-width:26px;}.cls-2{stroke-width:25px;}.cls-3{fill:#4273b4;}</style></defs><path class="cls-1" d="M223.31,319H52.77A32.77,32.77,0,0,1,20,286.21V272.45H223.31" transform="translate(-7 -12.02)"/><ellipse class="cls-2" cx="344.1" cy="100.17" rx="54.4" ry="54.39"/><path class="cls-1" d="M339.32,171h13.75A101.93,101.93,0,0,1,455,272.91v9.52A24.53,24.53,0,0,1,430.47,307H261.92a24.53,24.53,0,0,1-24.53-24.53v-9.52A101.93,101.93,0,0,1,339.32,171Z"/><polygon class="cls-3" points="118.11 94.05 147.61 158.69 182.75 123.55 118.11 94.05"/><rect class="cls-3" x="176.91" y="138.65" width="2.3" height="40.74" transform="translate(409.42 133.54) rotate(135)"/><path class="cls-1" d="M418.65,69.43V53A27.94,27.94,0,0,0,390.71,25H78.6A27.93,27.93,0,0,0,50.67,53V272.45" transform="translate(-7 -12.02)"/></svg>